<?xml version="1.0" encoding="utf-8"?>
<!-- Svg Vector Icons : http://www.onlinewebfonts.com/icon -->
<!DOCTYPE svg PUBLIC "-//W3C//DTD SVG 1.1//EN" "http://www.w3.org/Graphics/SVG/1.1/DTD/svg11.dtd">
<svg version="1.1" xmlns="http://www.w3.org/2000/svg" xmlns:xlink="http://www.w3.org/1999/xlink" x="0px" y="0px" viewBox="0 0 1000 1000" enable-background="new 0 0 1000 1000" xml:space="preserve">
<metadata> Svg Vector Icons : http://www.onlinewebfonts.com/icon </metadata>
<g><g transform="translate(0.000000,511.000000) scale(0.100000,-0.100000)"><path d="M6064.5,4997.4c-115-28.1-194.3-76.7-299.1-176.4c-92-86.9-115-135.5-276.1-570.1l-53.7-145.7l-503.6-15.3c-276.1-7.7-542-17.9-588-20.5c-81.8-7.7-84.4-5.1-212.2,273.6c-196.8,426.9-350.2,557.3-662.1,559.9c-155.9,0-194.3-12.8-595.7-199.4c-557.3-260.8-657-370.7-657-715.8c0-135.5,17.9-196.9,135.5-450l135.5-294l-268.4-271c-148.3-148.3-322.1-340-386-426.9c-63.9-86.9-127.8-155.9-143.2-158.5c-15.3,0-150.8,46-301.7,102.3c-391.2,145.7-593.1,138-825.8-40.9c-107.4-81.8-161.1-186.6-332.3-662.1C107.7,1454,92.4,1385,102.6,1272.5C133.3,970.8,289.2,812.3,698.3,664c153.4-56.2,286.3-107.4,296.6-115c10.2-10.2,25.6-240.3,30.7-513.9c7.7-273.6,20.5-534.3,28.1-577.8c17.9-76.7,17.9-76.7-273.6-212.2c-437.2-202-567.5-355.3-565-667.2c0-150.8,15.3-199.4,181.5-559.9c219.9-467.8,268.4-539.4,444.8-626.3c222.4-109.9,378.4-94.6,741.4,71.6l299.1,138.1l250.5-255.7c138-140.6,327.2-314.4,424.4-386c94.6-74.2,171.3-145.7,171.3-161.1c0-15.3-46-153.4-102.3-304.2c-125.3-340-135.5-511.3-38.3-700.5c86.9-173.8,176.4-237.8,490.9-360.5c511.3-196.9,649.4-237.8,779.7-222.4c294,35.8,444.8,191.7,605.9,621.2l112.5,304.2h411.6c225,0,490.9,5.1,585.5,12.8L5750-3838l120.1-263.3c179-398.8,291.5-511.3,562.5-570.1c163.6-33.3,248-10.2,697.9,196.8c434.6,199.4,488.3,235.2,582.9,401.4c63.9,109.9,76.7,161.1,76.7,299.1c0,148.3-15.3,199.4-138.1,467.8l-138,301.7l253.1,245.4c140.6,135.5,319.6,329.8,396.3,432l140.6,184.1l294-112.5c345.1-130.4,511.3-145.7,700.5-58.8c219.9,99.7,258.2,156,462.7,703c156,416.7,176.4,611,81.8,790c-97.1,181.5-207.1,260.8-539.4,391.1L8991.7-310l-12.8,498.5c-7.7,273.6-15.3,536.9-17.9,582.9c-7.7,86.9-7.7,86.9,260.8,207.1c345.1,155.9,488.3,286.3,549.7,496c58.8,204.5,38.3,294-181.5,772.1c-202,434.6-263.3,519-437.2,603.3c-194.3,94.6-363,76.7-674.9-63.9c-145.7-66.5-286.3-127.8-309.4-135.5c-33.2-10.2-117.6,58.8-294,237.8c-138,140.6-332.3,314.4-432,388.6l-184.1,135.5l112.5,294c166.2,442.3,150.8,664.7-66.5,879.4c-102.3,102.3-163.6,132.9-524.1,265.9C6371.2,5002.5,6207.6,5035.7,6064.5,4997.4z M5502,2550.8c754.2-143.2,1470-720.9,1779.3-1441.9C7445,727.9,7470.6,587.3,7468,99c0-398.8-5.1-452.5-71.6-664.7c-138-452.5-370.7-830.9-690.3-1132.5c-296.5-276.1-616.1-457.6-1025.2-582.9c-214.8-66.5-260.8-71.6-677.5-71.6c-416.7,0-462.7,5.1-677.5,71.6c-869.2,265.9-1508.3,920.4-1735.9,1779.4c-61.4,225-81.8,764.4-40.9,1017.5c74.1,467.9,309.3,940.8,644.2,1296.2C3799.4,2453.6,4620,2716.9,5502,2550.8z"/></g></g>
</svg>